<mxfile host="app.diagrams.net" modified="2022-11-10T08:14:40.215Z" agent="5.0 (Windows)" etag="rnuJZzx5fDIws_y9yUTU" version="20.5.1" type="github">
  <diagram id="C5RBs43oDa-KdzZeNtuy" name="Page-1">
    <mxGraphModel dx="2273" dy="793" grid="1" gridSize="10" guides="1" tooltips="1" connect="1" arrows="1" fold="1" page="1" pageScale="1" pageWidth="827" pageHeight="1169" math="0" shadow="0">
      <root>
        <mxCell id="WIyWlLk6GJQsqaUBKTNV-0" />
        <mxCell id="WIyWlLk6GJQsqaUBKTNV-1" parent="WIyWlLk6GJQsqaUBKTNV-0" />
        <mxCell id="CuqAJXjLOqw71UBwj7a8-0" value="" style="ellipse;html=1;shape=startState;fillColor=#000000;strokeColor=#ff0000;" vertex="1" parent="WIyWlLk6GJQsqaUBKTNV-1">
          <mxGeometry x="399" y="120" width="30" height="30" as="geometry" />
        </mxCell>
        <mxCell id="CuqAJXjLOqw71UBwj7a8-1" value="" style="edgeStyle=orthogonalEdgeStyle;html=1;verticalAlign=bottom;endArrow=open;endSize=8;strokeColor=#ff0000;rounded=0;entryX=0.5;entryY=0;entryDx=0;entryDy=0;" edge="1" source="CuqAJXjLOqw71UBwj7a8-0" parent="WIyWlLk6GJQsqaUBKTNV-1" target="CuqAJXjLOqw71UBwj7a8-2">
          <mxGeometry relative="1" as="geometry">
            <mxPoint x="414" y="210" as="targetPoint" />
          </mxGeometry>
        </mxCell>
        <mxCell id="CuqAJXjLOqw71UBwj7a8-7" style="edgeStyle=orthogonalEdgeStyle;rounded=0;orthogonalLoop=1;jettySize=auto;html=1;entryX=0.5;entryY=0;entryDx=0;entryDy=0;" edge="1" parent="WIyWlLk6GJQsqaUBKTNV-1" source="CuqAJXjLOqw71UBwj7a8-2" target="CuqAJXjLOqw71UBwj7a8-5">
          <mxGeometry relative="1" as="geometry" />
        </mxCell>
        <mxCell id="CuqAJXjLOqw71UBwj7a8-2" value="Ãœber alle Daten iterieren" style="rounded=1;whiteSpace=wrap;html=1;" vertex="1" parent="WIyWlLk6GJQsqaUBKTNV-1">
          <mxGeometry x="354" y="230" width="120" height="60" as="geometry" />
        </mxCell>
        <mxCell id="CuqAJXjLOqw71UBwj7a8-43" style="edgeStyle=orthogonalEdgeStyle;rounded=0;orthogonalLoop=1;jettySize=auto;html=1;entryX=0.75;entryY=0;entryDx=0;entryDy=0;exitX=0.5;exitY=0;exitDx=0;exitDy=0;" edge="1" parent="WIyWlLk6GJQsqaUBKTNV-1" source="CuqAJXjLOqw71UBwj7a8-15" target="CuqAJXjLOqw71UBwj7a8-21">
          <mxGeometry relative="1" as="geometry">
            <Array as="points">
              <mxPoint x="-160" y="200" />
              <mxPoint x="700" y="200" />
            </Array>
          </mxGeometry>
        </mxCell>
        <mxCell id="CuqAJXjLOqw71UBwj7a8-3" value="localMaxDate" style="rounded=0;whiteSpace=wrap;html=1;" vertex="1" parent="WIyWlLk6GJQsqaUBKTNV-1">
          <mxGeometry x="60" y="270" width="120" height="60" as="geometry" />
        </mxCell>
        <mxCell id="CuqAJXjLOqw71UBwj7a8-10" style="edgeStyle=orthogonalEdgeStyle;rounded=0;orthogonalLoop=1;jettySize=auto;html=1;entryX=0.5;entryY=0;entryDx=0;entryDy=0;" edge="1" parent="WIyWlLk6GJQsqaUBKTNV-1" source="CuqAJXjLOqw71UBwj7a8-5" target="CuqAJXjLOqw71UBwj7a8-21">
          <mxGeometry relative="1" as="geometry">
            <mxPoint x="620" y="360" as="targetPoint" />
          </mxGeometry>
        </mxCell>
        <mxCell id="CuqAJXjLOqw71UBwj7a8-13" value="&lt;div style=&quot;--original-color: rgb(0, 0, 0); --original-background-color: rgb(255, 255, 255);&quot;&gt;NEIN&lt;/div&gt;" style="edgeLabel;html=1;align=center;verticalAlign=middle;resizable=0;points=[];" vertex="1" connectable="0" parent="CuqAJXjLOqw71UBwj7a8-10">
          <mxGeometry x="0.22" y="-4" relative="1" as="geometry">
            <mxPoint as="offset" />
          </mxGeometry>
        </mxCell>
        <mxCell id="CuqAJXjLOqw71UBwj7a8-11" style="edgeStyle=orthogonalEdgeStyle;rounded=0;orthogonalLoop=1;jettySize=auto;html=1;entryX=0.5;entryY=0;entryDx=0;entryDy=0;exitX=0;exitY=0.5;exitDx=0;exitDy=0;" edge="1" parent="WIyWlLk6GJQsqaUBKTNV-1" source="CuqAJXjLOqw71UBwj7a8-5" target="CuqAJXjLOqw71UBwj7a8-9">
          <mxGeometry relative="1" as="geometry" />
        </mxCell>
        <mxCell id="CuqAJXjLOqw71UBwj7a8-12" value="JA" style="edgeLabel;html=1;align=center;verticalAlign=middle;resizable=0;points=[];" vertex="1" connectable="0" parent="CuqAJXjLOqw71UBwj7a8-11">
          <mxGeometry x="-0.0597" y="-1" relative="1" as="geometry">
            <mxPoint as="offset" />
          </mxGeometry>
        </mxCell>
        <mxCell id="CuqAJXjLOqw71UBwj7a8-5" value="Ist Datum &amp;gt; X" style="rounded=1;whiteSpace=wrap;html=1;" vertex="1" parent="WIyWlLk6GJQsqaUBKTNV-1">
          <mxGeometry x="354" y="330" width="120" height="60" as="geometry" />
        </mxCell>
        <mxCell id="CuqAJXjLOqw71UBwj7a8-34" style="edgeStyle=orthogonalEdgeStyle;rounded=0;orthogonalLoop=1;jettySize=auto;html=1;entryX=0;entryY=0.5;entryDx=0;entryDy=0;" edge="1" parent="WIyWlLk6GJQsqaUBKTNV-1" source="CuqAJXjLOqw71UBwj7a8-6" target="CuqAJXjLOqw71UBwj7a8-33">
          <mxGeometry relative="1" as="geometry">
            <Array as="points">
              <mxPoint x="30" y="750" />
            </Array>
          </mxGeometry>
        </mxCell>
        <mxCell id="CuqAJXjLOqw71UBwj7a8-44" style="edgeStyle=orthogonalEdgeStyle;rounded=0;orthogonalLoop=1;jettySize=auto;html=1;entryX=1;entryY=0;entryDx=0;entryDy=0;exitX=0.5;exitY=0;exitDx=0;exitDy=0;" edge="1" parent="WIyWlLk6GJQsqaUBKTNV-1" source="CuqAJXjLOqw71UBwj7a8-6" target="CuqAJXjLOqw71UBwj7a8-21">
          <mxGeometry relative="1" as="geometry">
            <Array as="points">
              <mxPoint x="-20" y="190" />
              <mxPoint x="730" y="190" />
            </Array>
          </mxGeometry>
        </mxCell>
        <mxCell id="CuqAJXjLOqw71UBwj7a8-6" value="maxRow" style="rounded=0;whiteSpace=wrap;html=1;" vertex="1" parent="WIyWlLk6GJQsqaUBKTNV-1">
          <mxGeometry x="-80" y="270" width="120" height="60" as="geometry" />
        </mxCell>
        <mxCell id="CuqAJXjLOqw71UBwj7a8-31" value="&lt;div&gt;JA&lt;/div&gt;" style="edgeStyle=orthogonalEdgeStyle;rounded=0;orthogonalLoop=1;jettySize=auto;html=1;entryX=0.7;entryY=0.95;entryDx=0;entryDy=0;entryPerimeter=0;startArrow=none;" edge="1" parent="WIyWlLk6GJQsqaUBKTNV-1" source="CuqAJXjLOqw71UBwj7a8-37" target="CuqAJXjLOqw71UBwj7a8-5">
          <mxGeometry relative="1" as="geometry" />
        </mxCell>
        <mxCell id="CuqAJXjLOqw71UBwj7a8-32" style="edgeStyle=orthogonalEdgeStyle;rounded=0;orthogonalLoop=1;jettySize=auto;html=1;" edge="1" parent="WIyWlLk6GJQsqaUBKTNV-1" source="CuqAJXjLOqw71UBwj7a8-8" target="CuqAJXjLOqw71UBwj7a8-33">
          <mxGeometry relative="1" as="geometry">
            <mxPoint x="340" y="750" as="targetPoint" />
            <Array as="points">
              <mxPoint x="340" y="550" />
            </Array>
          </mxGeometry>
        </mxCell>
        <mxCell id="CuqAJXjLOqw71UBwj7a8-42" value="NEIN" style="edgeLabel;html=1;align=center;verticalAlign=middle;resizable=0;points=[];" vertex="1" connectable="0" parent="CuqAJXjLOqw71UBwj7a8-32">
          <mxGeometry x="-0.2381" y="-3" relative="1" as="geometry">
            <mxPoint as="offset" />
          </mxGeometry>
        </mxCell>
        <mxCell id="CuqAJXjLOqw71UBwj7a8-40" value="" style="edgeStyle=orthogonalEdgeStyle;rounded=0;orthogonalLoop=1;jettySize=auto;html=1;" edge="1" parent="WIyWlLk6GJQsqaUBKTNV-1" source="CuqAJXjLOqw71UBwj7a8-8" target="CuqAJXjLOqw71UBwj7a8-37">
          <mxGeometry relative="1" as="geometry" />
        </mxCell>
        <mxCell id="CuqAJXjLOqw71UBwj7a8-8" value="Gibt es ein weiteres Datum?" style="rounded=1;whiteSpace=wrap;html=1;" vertex="1" parent="WIyWlLk6GJQsqaUBKTNV-1">
          <mxGeometry x="380" y="518" width="120" height="60" as="geometry" />
        </mxCell>
        <mxCell id="CuqAJXjLOqw71UBwj7a8-14" style="edgeStyle=orthogonalEdgeStyle;rounded=0;orthogonalLoop=1;jettySize=auto;html=1;entryX=0.5;entryY=1;entryDx=0;entryDy=0;exitX=0;exitY=0.5;exitDx=0;exitDy=0;" edge="1" parent="WIyWlLk6GJQsqaUBKTNV-1" source="CuqAJXjLOqw71UBwj7a8-9" target="CuqAJXjLOqw71UBwj7a8-3">
          <mxGeometry relative="1" as="geometry" />
        </mxCell>
        <mxCell id="CuqAJXjLOqw71UBwj7a8-19" value="" style="edgeStyle=orthogonalEdgeStyle;rounded=0;orthogonalLoop=1;jettySize=auto;html=1;" edge="1" parent="WIyWlLk6GJQsqaUBKTNV-1" source="CuqAJXjLOqw71UBwj7a8-9" target="CuqAJXjLOqw71UBwj7a8-18">
          <mxGeometry relative="1" as="geometry" />
        </mxCell>
        <mxCell id="CuqAJXjLOqw71UBwj7a8-9" value="aktuelles Datum abspeichern" style="rounded=1;whiteSpace=wrap;html=1;" vertex="1" parent="WIyWlLk6GJQsqaUBKTNV-1">
          <mxGeometry x="180" y="395" width="120" height="60" as="geometry" />
        </mxCell>
        <mxCell id="CuqAJXjLOqw71UBwj7a8-15" value="localMaxRow" style="rounded=0;whiteSpace=wrap;html=1;" vertex="1" parent="WIyWlLk6GJQsqaUBKTNV-1">
          <mxGeometry x="-220" y="270" width="120" height="60" as="geometry" />
        </mxCell>
        <mxCell id="CuqAJXjLOqw71UBwj7a8-20" style="edgeStyle=orthogonalEdgeStyle;rounded=0;orthogonalLoop=1;jettySize=auto;html=1;" edge="1" parent="WIyWlLk6GJQsqaUBKTNV-1" source="CuqAJXjLOqw71UBwj7a8-18" target="CuqAJXjLOqw71UBwj7a8-15">
          <mxGeometry relative="1" as="geometry" />
        </mxCell>
        <mxCell id="CuqAJXjLOqw71UBwj7a8-41" style="edgeStyle=orthogonalEdgeStyle;rounded=0;orthogonalLoop=1;jettySize=auto;html=1;entryX=0;entryY=0;entryDx=0;entryDy=0;" edge="1" parent="WIyWlLk6GJQsqaUBKTNV-1" source="CuqAJXjLOqw71UBwj7a8-18" target="CuqAJXjLOqw71UBwj7a8-8">
          <mxGeometry relative="1" as="geometry" />
        </mxCell>
        <mxCell id="CuqAJXjLOqw71UBwj7a8-18" value="localMaxRow +1" style="whiteSpace=wrap;html=1;rounded=1;" vertex="1" parent="WIyWlLk6GJQsqaUBKTNV-1">
          <mxGeometry x="180" y="485" width="120" height="60" as="geometry" />
        </mxCell>
        <mxCell id="CuqAJXjLOqw71UBwj7a8-23" value="JA" style="edgeStyle=orthogonalEdgeStyle;rounded=0;orthogonalLoop=1;jettySize=auto;html=1;" edge="1" parent="WIyWlLk6GJQsqaUBKTNV-1" source="CuqAJXjLOqw71UBwj7a8-21" target="CuqAJXjLOqw71UBwj7a8-22">
          <mxGeometry relative="1" as="geometry" />
        </mxCell>
        <mxCell id="CuqAJXjLOqw71UBwj7a8-25" value="NEIN" style="edgeStyle=orthogonalEdgeStyle;rounded=0;orthogonalLoop=1;jettySize=auto;html=1;" edge="1" parent="WIyWlLk6GJQsqaUBKTNV-1" source="CuqAJXjLOqw71UBwj7a8-21" target="CuqAJXjLOqw71UBwj7a8-24">
          <mxGeometry relative="1" as="geometry" />
        </mxCell>
        <mxCell id="CuqAJXjLOqw71UBwj7a8-21" value="ist localMaxRow &amp;gt; maxRow" style="rounded=1;whiteSpace=wrap;html=1;" vertex="1" parent="WIyWlLk6GJQsqaUBKTNV-1">
          <mxGeometry x="610" y="403" width="120" height="60" as="geometry" />
        </mxCell>
        <mxCell id="CuqAJXjLOqw71UBwj7a8-26" style="edgeStyle=orthogonalEdgeStyle;rounded=0;orthogonalLoop=1;jettySize=auto;html=1;entryX=0.25;entryY=1;entryDx=0;entryDy=0;" edge="1" parent="WIyWlLk6GJQsqaUBKTNV-1" source="CuqAJXjLOqw71UBwj7a8-22" target="CuqAJXjLOqw71UBwj7a8-15">
          <mxGeometry relative="1" as="geometry">
            <Array as="points">
              <mxPoint x="-190" y="620" />
            </Array>
          </mxGeometry>
        </mxCell>
        <mxCell id="CuqAJXjLOqw71UBwj7a8-27" style="edgeStyle=orthogonalEdgeStyle;rounded=0;orthogonalLoop=1;jettySize=auto;html=1;entryX=0.5;entryY=1;entryDx=0;entryDy=0;" edge="1" parent="WIyWlLk6GJQsqaUBKTNV-1" source="CuqAJXjLOqw71UBwj7a8-22" target="CuqAJXjLOqw71UBwj7a8-6">
          <mxGeometry relative="1" as="geometry" />
        </mxCell>
        <mxCell id="CuqAJXjLOqw71UBwj7a8-28" style="edgeStyle=orthogonalEdgeStyle;rounded=0;orthogonalLoop=1;jettySize=auto;html=1;entryX=0.5;entryY=1;entryDx=0;entryDy=0;exitX=0;exitY=0.25;exitDx=0;exitDy=0;" edge="1" parent="WIyWlLk6GJQsqaUBKTNV-1" source="CuqAJXjLOqw71UBwj7a8-22" target="CuqAJXjLOqw71UBwj7a8-8">
          <mxGeometry relative="1" as="geometry" />
        </mxCell>
        <mxCell id="CuqAJXjLOqw71UBwj7a8-22" value="&lt;div&gt;maxRow = localMaxRow&lt;br&gt;&lt;/div&gt;&lt;div&gt;localMaxRow = 0&lt;/div&gt;" style="whiteSpace=wrap;html=1;rounded=1;" vertex="1" parent="WIyWlLk6GJQsqaUBKTNV-1">
          <mxGeometry x="530" y="588" width="140" height="60" as="geometry" />
        </mxCell>
        <mxCell id="CuqAJXjLOqw71UBwj7a8-29" style="edgeStyle=orthogonalEdgeStyle;rounded=0;orthogonalLoop=1;jettySize=auto;html=1;entryX=0.75;entryY=1;entryDx=0;entryDy=0;exitX=0.5;exitY=1;exitDx=0;exitDy=0;" edge="1" parent="WIyWlLk6GJQsqaUBKTNV-1" source="CuqAJXjLOqw71UBwj7a8-24" target="CuqAJXjLOqw71UBwj7a8-15">
          <mxGeometry relative="1" as="geometry">
            <Array as="points">
              <mxPoint x="760" y="670" />
              <mxPoint x="-130" y="670" />
            </Array>
          </mxGeometry>
        </mxCell>
        <mxCell id="CuqAJXjLOqw71UBwj7a8-30" style="edgeStyle=orthogonalEdgeStyle;rounded=0;orthogonalLoop=1;jettySize=auto;html=1;entryX=0.25;entryY=1;entryDx=0;entryDy=0;exitX=0.25;exitY=1;exitDx=0;exitDy=0;" edge="1" parent="WIyWlLk6GJQsqaUBKTNV-1" source="CuqAJXjLOqw71UBwj7a8-24" target="CuqAJXjLOqw71UBwj7a8-8">
          <mxGeometry relative="1" as="geometry">
            <Array as="points">
              <mxPoint x="730" y="660" />
              <mxPoint x="400" y="660" />
              <mxPoint x="400" y="578" />
            </Array>
          </mxGeometry>
        </mxCell>
        <mxCell id="CuqAJXjLOqw71UBwj7a8-24" value="localMaxRow = 0" style="whiteSpace=wrap;html=1;rounded=1;" vertex="1" parent="WIyWlLk6GJQsqaUBKTNV-1">
          <mxGeometry x="700" y="578" width="120" height="60" as="geometry" />
        </mxCell>
        <mxCell id="CuqAJXjLOqw71UBwj7a8-33" value="maxRow zurÃ¼ck geben" style="rounded=1;whiteSpace=wrap;html=1;" vertex="1" parent="WIyWlLk6GJQsqaUBKTNV-1">
          <mxGeometry x="280" y="720" width="120" height="60" as="geometry" />
        </mxCell>
        <mxCell id="CuqAJXjLOqw71UBwj7a8-35" value="" style="ellipse;html=1;shape=endState;fillColor=#000000;strokeColor=#ff0000;" vertex="1" parent="WIyWlLk6GJQsqaUBKTNV-1">
          <mxGeometry x="325" y="860" width="30" height="30" as="geometry" />
        </mxCell>
        <mxCell id="CuqAJXjLOqw71UBwj7a8-36" value="" style="edgeStyle=orthogonalEdgeStyle;rounded=0;orthogonalLoop=1;jettySize=auto;html=1;" edge="1" parent="WIyWlLk6GJQsqaUBKTNV-1" source="CuqAJXjLOqw71UBwj7a8-33" target="CuqAJXjLOqw71UBwj7a8-35">
          <mxGeometry relative="1" as="geometry" />
        </mxCell>
        <mxCell id="CuqAJXjLOqw71UBwj7a8-37" value="nÃ¤chstes Datum" style="rounded=1;whiteSpace=wrap;html=1;" vertex="1" parent="WIyWlLk6GJQsqaUBKTNV-1">
          <mxGeometry x="380" y="420" width="120" height="60" as="geometry" />
        </mxCell>
      </root>
    </mxGraphModel>
  </diagram>
</mxfile>
